name ./resultDataOpenSim/trcMotMarkerGrf/sub09/grf-05-04.mot
datacolumns 19
datarows 30
range 0.63600000 0.75200000
endheader

                time	     ground_force_vx	     ground_force_vy	     ground_force_vz	     ground_force_px	     ground_force_py	     ground_force_pz	   l_ground_force_vx	   l_ground_force_vy	   l_ground_force_vz	   l_ground_force_px	   l_ground_force_py	   l_ground_force_pz	     ground_torque_x	     ground_torque_y	     ground_torque_z	   l_ground_torque_x	   l_ground_torque_y	   l_ground_torque_z	
          0.63600000	        141.16919619	        719.59708792	        -28.33455669	         -0.68694218	          0.00000000	          0.08800333	          0.00000000	          0.00000000	          0.00000000	          0.00000000	          0.00000000	          0.00000000	          0.00000000	          5.51618572	          0.00000000	          0.00000000	          0.00000000	          0.00000000	
          0.64000000	        148.15805637	        725.57183841	        -27.33107010	         -0.68619614	          0.00000000	          0.08752988	          0.00000000	          0.00000000	          0.00000000	          0.00000000	          0.00000000	          0.00000000	          0.00000000	          5.74180508	          0.00000000	          0.00000000	          0.00000000	          0.00000000	
          0.64400000	        154.73284376	        730.05170085	        -26.20531757	         -0.68543812	          0.00000000	          0.08704730	          0.00000000	          0.00000000	          0.00000000	          0.00000000	          0.00000000	          0.00000000	          0.00000000	          5.97180301	          0.00000000	          0.00000000	          0.00000000	          0.00000000	
          0.64800000	        160.88160387	        732.95774331	        -24.88164121	         -0.68465865	          0.00000000	          0.08655576	          0.00000000	          0.00000000	          0.00000000	          0.00000000	          0.00000000	          0.00000000	          0.00000000	          6.21548219	          0.00000000	          0.00000000	          0.00000000	          0.00000000	
          0.65200000	        166.64561848	        734.21716509	        -23.31479820	         -0.68386192	          0.00000000	          0.08605322	          0.00000000	          0.00000000	          0.00000000	          0.00000000	          0.00000000	          0.00000000	          0.00000000	          6.47589045	          0.00000000	          0.00000000	          0.00000000	          0.00000000	
          0.65600000	        172.09201134	        733.76324589	        -21.50526645	         -0.68305895	          0.00000000	          0.08554077	          0.00000000	          0.00000000	          0.00000000	          0.00000000	          0.00000000	          0.00000000	          0.00000000	          6.74783747	          0.00000000	          0.00000000	          0.00000000	          0.00000000	
          0.66000000	        177.28492023	        731.54307179	        -19.50437554	         -0.68226145	          0.00000000	          0.08502018	          0.00000000	          0.00000000	          0.00000000	          0.00000000	          0.00000000	          0.00000000	          0.00000000	          7.01792913	          0.00000000	          0.00000000	          0.00000000	          0.00000000	
          0.66400000	        182.26251004	        727.52260809	        -17.40657568	         -0.68148433	          0.00000000	          0.08449322	          0.00000000	          0.00000000	          0.00000000	          0.00000000	          0.00000000	          0.00000000	          0.00000000	          7.26661645	          0.00000000	          0.00000000	          0.00000000	          0.00000000	
          0.66800000	        187.02266996	        721.67183298	        -15.32938929	         -0.68074097	          0.00000000	          0.08396658	          0.00000000	          0.00000000	          0.00000000	          0.00000000	          0.00000000	          0.00000000	          0.00000000	          7.47180444	          0.00000000	          0.00000000	          0.00000000	          0.00000000	
          0.67200000	        191.52024023	        713.94578470	        -13.38529290	         -0.68003559	          0.00000000	          0.08345033	          0.00000000	          0.00000000	          0.00000000	          0.00000000	          0.00000000	          0.00000000	          0.00000000	          7.61317539	          0.00000000	          0.00000000	          0.00000000	          0.00000000	
          0.67600000	        195.67696927	        704.28170500	        -11.65260085	         -0.67936104	          0.00000000	          0.08295260	          0.00000000	          0.00000000	          0.00000000	          0.00000000	          0.00000000	          0.00000000	          0.00000000	          7.67618464	          0.00000000	          0.00000000	          0.00000000	          0.00000000	
          0.68000000	        199.39724247	        692.61191519	        -10.15318112	         -0.67869448	          0.00000000	          0.08247471	          0.00000000	          0.00000000	          0.00000000	          0.00000000	          0.00000000	          0.00000000	          0.00000000	          7.65478576	          0.00000000	          0.00000000	          0.00000000	          0.00000000	
          0.68400000	        202.57789914	        678.87791901	         -8.84287074	         -0.67801111	          0.00000000	          0.08201121	          0.00000000	          0.00000000	          0.00000000	          0.00000000	          0.00000000	          0.00000000	          0.00000000	          7.55232132	          0.00000000	          0.00000000	          0.00000000	          0.00000000	
          0.68800000	        205.10442517	        663.03849381	         -7.61839250	         -0.67728842	          0.00000000	          0.08155200	          0.00000000	          0.00000000	          0.00000000	          0.00000000	          0.00000000	          0.00000000	          0.00000000	          7.38052454	          0.00000000	          0.00000000	          0.00000000	          0.00000000	
          0.69200000	        206.83482946	        645.07840334	         -6.33897829	         -0.67650569	          0.00000000	          0.08108403	          0.00000000	          0.00000000	          0.00000000	          0.00000000	          0.00000000	          0.00000000	          0.00000000	          7.15701011	          0.00000000	          0.00000000	          0.00000000	          0.00000000	
          0.69600000	        207.58604307	        625.00820294	         -4.85437968	         -0.67565060	          0.00000000	          0.08058950	         14.17283362	         68.75994412	          7.19668261	          0.04085294	         -0.10000000	          0.01628558	          0.00000000	          6.90183294	          0.00000000	          0.00000000	          0.73856395	          0.00000000	
          0.70000000	        207.13546800	        602.84426883	         -3.03327516	         -0.67470702	          0.00000000	          0.08004902	          5.51826373	        196.16408529	         12.78773218	          0.02076849	         -0.10000000	          0.01692894	          0.00000000	          6.63367552	          0.00000000	          0.00000000	          0.80363828	          0.00000000	
          0.70400000	        205.23280607	        578.58193322	         -0.79117989	         -0.67363594	          0.00000000	          0.07943808	         -5.29318946	        332.53516809	         17.03844024	          0.00886712	         -0.10000000	          0.01756930	          0.00000000	          6.36616922	          0.00000000	          0.00000000	          0.84420157	          0.00000000	
          0.70800000	        201.61461355	        552.17552162	          1.88257435	         -0.67240793	          0.00000000	          0.07873637	        -19.62696347	        482.95906390	         19.17002169	          0.00058344	         -0.10000000	          0.01823302	          0.00000000	          6.10491329	          0.00000000	          0.00000000	          0.84847172	          0.00000000	
          0.71200000	        196.02066412	        523.54313035	          4.90311944	         -0.67098283	          0.00000000	          0.07792170	        -37.43169935	        642.68959023	         17.88734609	         -0.00506376	         -0.10000000	          0.01889373	          0.00000000	          5.84585321	          0.00000000	          0.00000000	          0.81388731	          0.00000000	
          0.71600000	        188.22195324	        492.61660774	          8.08886159	         -0.66930128	          0.00000000	          0.07697638	        -57.64434254	        794.30201248	         11.66074326	         -0.00832537	         -0.10000000	          0.01957142	          0.00000000	          5.57559801	          0.00000000	          0.00000000	          0.75247770	          0.00000000	
          0.72000000	        178.09167617	        459.39640382	         11.19402504	         -0.66733565	          0.00000000	          0.07588408	        -79.35063426	        912.55645613	         -0.16202337	         -0.00910026	         -0.10000000	          0.02033493	          0.00000000	          5.27390470	          0.00000000	          0.00000000	          0.69322235	          0.00000000	
          0.72400000	        165.74292650	        423.91133611	         13.95901428	         -0.66515294	          0.00000000	          0.07463079	       -102.49944726	        977.80275869	        -16.06228839	         -0.00737147	         -0.10000000	          0.02123234	          0.00000000	          4.91809660	          0.00000000	          0.00000000	          0.67884602	          0.00000000	
          0.72800000	        151.66964834	        386.11665522	         16.15291720	         -0.66284351	          0.00000000	          0.07324290	       -127.35456686	        987.90177115	        -32.37077464	         -0.00326546	         -0.10000000	          0.02222029	          0.00000000	          4.48881498	          0.00000000	          0.00000000	          0.75748285	          0.00000000	
          0.73200000	        136.72352009	        346.00634489	         17.60229201	         -0.66034863	          0.00000000	          0.07183793	       -153.45197887	        958.36340123	        -44.89231228	          0.00292389	         -0.10000000	          0.02313702	          0.00000000	          3.97612762	          0.00000000	          0.00000000	          0.97257848	          0.00000000	
          0.73600000	        121.85456638	        304.08154495	         18.20210853	         -0.65746586	          0.00000000	          0.07057589	       -179.18342880	        912.28539058	        -50.76018325	          0.01053105	         -0.10000000	          0.02377791	          0.00000000	          3.38451198	          0.00000000	          0.00000000	          1.35434374	          0.00000000	
          0.74000000	        107.80802038	        261.75616277	         17.91003246	         -0.65423485	          0.00000000	          0.06953850	       -202.14001795	        869.35814737	        -49.24458702	          0.01843108	         -0.10000000	          0.02405641	          0.00000000	          2.73502305	          0.00000000	          0.00000000	          1.91320638	          0.00000000	
          0.74400000	         94.98986086	        221.10008662	         16.74483097	         -0.65131208	          0.00000000	          0.06866804	       -219.86195919	        840.73959233	        -41.39385307	          0.02536241	         -0.10000000	          0.02402285	          0.00000000	          2.06360821	          0.00000000	          0.00000000	          2.63398675	          0.00000000	
          0.74800000	         83.46500379	        183.96907073	         14.79737987	         -0.64960480	          0.00000000	          0.06789874	       -230.80332652	        830.16001986	        -29.14231136	          0.03039920	         -0.10000000	          0.02374939	          0.00000000	          1.41583729	          0.00000000	          0.00000000	          3.47152038	          0.00000000	
          0.75200000	         72.98435904	        151.26733379	         12.24624279	         -0.64925186	          0.00000000	          0.06737334	       -235.17415372	        837.21401085	        -14.53152630	          0.03325575	         -0.10000000	          0.02326672	          0.00000000	          0.83941770	          0.00000000	          0.00000000	          4.35134622	          0.00000000	
